<svg width="12" height="13" viewBox="0 0 12 13" fill="none" xmlns="http://www.w3.org/2000/svg">
<path d="M11.6667 6.17647C11.6667 9.58743 9.05479 12.3529 5.83333 12.3529C2.61187 12.3529 0 9.58743 0 6.17647C0 2.76551 2.61187 0 5.83333 0C9.05479 0 11.6667 2.76551 11.6667 6.17647ZM7.86576 2.64096C7.71799 2.61985 7.4059 2.57353 6.81576 2.57353C5.58347 2.57353 4.86111 3.26272 4.86111 4.83257V5.66177H3.40278V7.20588H4.86111V11.2201C5.17514 11.2875 5.50035 11.3235 5.83333 11.3235C5.99764 11.3235 6.15951 11.3143 6.31944 11.2978V7.20588H7.64458L7.85264 5.66177H6.31944V5.00191C6.31944 4.41 6.50222 4.11765 7.02528 4.11765H7.86576V2.64096Z" fill="black"/>
</svg>
