<svg width="24" height="24" viewBox="0 0 24 24" fill="none" xmlns="http://www.w3.org/2000/svg">
<path d="M23.2 12C23.2 18.1852 18.1852 23.2 12 23.2C5.81485 23.2 0.800049 18.1852 0.800049 12C0.800049 5.81485 5.81485 0.800049 12 0.800049C18.1852 0.800049 23.2 5.81485 23.2 12ZM15.9023 5.58898C15.6186 5.55071 15.0194 5.46672 13.8863 5.46672C11.5203 5.46672 10.1334 6.71645 10.1334 9.56312V11.0667H7.33338V13.8667H10.1334V21.1458C10.7363 21.268 11.3607 21.3334 12 21.3334C12.3155 21.3334 12.6263 21.3166 12.9334 21.2867V13.8667H15.4776L15.8771 11.0667H12.9334V9.87018C12.9334 8.79685 13.2843 8.26672 14.2886 8.26672H15.9023V5.58898Z" fill="black"/>
</svg>
