<svg width="24" height="24" viewBox="0 0 24 24" fill="none" xmlns="http://www.w3.org/2000/svg">
<path d="M23.2 11.9998C23.2 18.185 18.1852 23.1998 12 23.1998C5.81485 23.1998 0.800049 18.185 0.800049 11.9998C0.800049 5.8146 5.81485 0.799805 12 0.799805C18.1852 0.799805 23.2 5.8146 23.2 11.9998ZM15.9023 5.58874C15.6186 5.55047 15.0194 5.46647 13.8863 5.46647C11.5203 5.46647 10.1334 6.7162 10.1334 9.56287V11.0665H7.33338V13.8665H10.1334V21.1455C10.7363 21.2678 11.3607 21.3331 12 21.3331C12.3155 21.3331 12.6263 21.3163 12.9334 21.2865V13.8665H15.4776L15.8771 11.0665H12.9334V9.86994C12.9334 8.79661 13.2843 8.26647 14.2886 8.26647H15.9023V5.58874Z" fill="black"/>
</svg>
