<svg width="12" height="12" viewBox="0 0 12 12" fill="none" xmlns="http://www.w3.org/2000/svg">
<path d="M3.49902 0C1.56952 0 0 1.57098 0 3.50098V8.50098C0 10.4305 1.57098 12 3.50098 12H8.50098C10.4305 12 12 10.429 12 8.49902V3.49902C12 1.56952 10.429 0 8.49902 0H3.49902ZM9.5 2C9.776 2 10 2.224 10 2.5C10 2.776 9.776 3 9.5 3C9.224 3 9 2.776 9 2.5C9 2.224 9.224 2 9.5 2ZM6 3C7.6545 3 9 4.3455 9 6C9 7.6545 7.6545 9 6 9C4.3455 9 3 7.6545 3 6C3 4.3455 4.3455 3 6 3ZM6 4C5.46957 4 4.96086 4.21071 4.58579 4.58579C4.21071 4.96086 4 5.46957 4 6C4 6.53043 4.21071 7.03914 4.58579 7.41421C4.96086 7.78929 5.46957 8 6 8C6.53043 8 7.03914 7.78929 7.41421 7.41421C7.78929 7.03914 8 6.53043 8 6C8 5.46957 7.78929 4.96086 7.41421 4.58579C7.03914 4.21071 6.53043 4 6 4Z" fill="black"/>
</svg>
