<svg width="12" height="12" viewBox="0 0 12 12" fill="none" xmlns="http://www.w3.org/2000/svg">
<path d="M6 0C2.6865 0 0 2.6865 0 6C0 7.1256 0.316171 8.17503 0.855469 9.0752L0.0537109 12L3.04102 11.2158C3.91468 11.7125 4.92324 12 6 12C9.3135 12 12 9.3135 12 6C12 2.6865 9.3135 0 6 0ZM3.94629 3.20117C4.04379 3.20117 4.14397 3.20058 4.23047 3.20508C4.33747 3.20758 4.45393 3.21541 4.56543 3.46191C4.69793 3.75491 4.98644 4.48995 5.02344 4.56445C5.06044 4.63895 5.08666 4.72672 5.03516 4.82422C4.98616 4.92422 4.96067 4.98474 4.88867 5.07324C4.81417 5.15924 4.73254 5.26605 4.66504 5.33105C4.59054 5.40555 4.51361 5.48724 4.59961 5.63574C4.68561 5.78424 4.98428 6.27106 5.42578 6.66406C5.99328 7.17106 6.47209 7.32687 6.62109 7.40137C6.77009 7.47587 6.85638 7.46426 6.94238 7.36426C7.03088 7.26676 7.31406 6.9322 7.41406 6.7832C7.51156 6.6342 7.61109 6.65998 7.74609 6.70898C7.88309 6.75798 8.6137 7.11788 8.7627 7.19238C8.9117 7.26688 9.00937 7.30376 9.04688 7.36426C9.08537 7.42676 9.08541 7.72429 8.96191 8.07129C8.83841 8.41779 8.23196 8.75287 7.95996 8.77637C7.68546 8.80187 7.42928 8.89975 6.17578 8.40625C4.66378 7.81075 3.71024 6.26211 3.63574 6.16211C3.56124 6.06461 3.03027 5.35695 3.03027 4.62695C3.03027 3.89445 3.41433 3.53572 3.54883 3.38672C3.68583 3.23772 3.84629 3.20117 3.94629 3.20117Z" fill="black"/>
</svg>
